<svg width="180" height="180" viewBox="0 0 180 180" fill="none" xmlns="http://www.w3.org/2000/svg">
<path d="M90.4954 13.994L115.664 39.1627L90.4954 64.3314L65.3267 39.1627L90.4954 13.994Z" fill="#00A7C9"/>
<path d="M90.4954 114.669L115.664 139.838L90.4954 165.007L65.3267 139.838L90.4954 114.669Z" fill="#0F93A1"/>
<path d="M115.663 39.1626L140.832 64.3313L115.663 89.5L90.4947 64.3313L115.663 39.1626Z" fill="#FFBF6D"/>
<path d="M140.831 64.3319L166 89.5006L140.831 114.669L115.663 89.5006L140.831 64.3319Z" fill="#9984B6"/>
<path d="M65.3275 39.1626L90.4962 64.3313L65.3275 89.5L40.1588 64.3313L65.3275 39.1626Z" fill="#8993C4"/>
<path d="M40.1595 64.3319L65.3282 89.5006L40.1595 114.669L14.9908 89.5006L40.1595 64.3319Z" fill="#D796C3"/>
<path d="M65.3275 89.5005L90.4962 114.669L65.3275 139.838L40.1588 114.669L65.3275 89.5005Z" fill="#00C8C7"/>
<path d="M115.663 89.4992L140.832 114.668L115.663 139.837L90.4947 114.668L115.663 89.4992Z" fill="#6F7EA6"/>
<path d="M90.502 55.9524C85.8775 60.4974 67.2489 79.6588 67.2489 93.3208C67.2489 105.282 77.6808 115.015 90.502 115.015C103.323 115.015 113.755 105.282 113.755 93.3208C113.755 79.6507 95.1265 60.4947 90.502 55.9524Z" fill="white"/>
<path d="M90.502 55.9524C85.8775 60.4974 67.2489 79.6588 67.2489 93.3208C67.2489 105.282 77.6808 115.015 90.502 115.015C103.323 115.015 113.755 105.282 113.755 93.3208C113.755 79.6507 95.1265 60.4947 90.502 55.9524Z" fill="white"/>
<path fill-rule="evenodd" clip-rule="evenodd" d="M90.4985 52.0203L92.4439 53.9311C94.8017 56.2469 100.732 62.2887 106.093 69.5242C108.774 73.142 111.357 77.1178 113.28 81.1235C115.187 85.0977 116.542 89.3009 116.542 93.3204C116.542 107.046 104.648 117.833 90.4991 117.833C76.3503 117.833 64.4559 107.046 64.4559 93.3204C64.4559 89.3027 65.8112 85.1006 67.7186 81.1271C69.6411 77.1221 72.2241 73.1464 74.9047 69.5283C80.2658 62.2923 86.1962 56.2486 88.5536 53.9317L90.4985 52.0203ZM67.2459 93.3204C67.2459 79.6585 85.8746 60.497 90.4991 55.9521C95.1235 60.4943 113.752 79.6504 113.752 93.3204C113.752 105.282 103.32 115.015 90.4991 115.015C77.6779 115.015 67.2459 105.282 67.2459 93.3204Z" fill="#338CB8"/>
</svg>
