<svg width="204" height="57" viewBox="0 0 204 57" fill="none" xmlns="http://www.w3.org/2000/svg">
<path d="M28.0898 0L37.4534 9.36356L28.0898 18.7271L18.7263 9.36356L28.0898 0Z" fill="#00A7C9"/>
<path d="M28.0898 37.4542L37.4534 46.8178L28.0898 56.1813L18.7263 46.8178L28.0898 37.4542Z" fill="#0F93A1"/>
<path d="M37.4531 9.3634L46.8167 18.727L37.4531 28.0905L28.0896 18.727L37.4531 9.3634Z" fill="#FFBF6D"/>
<path d="M46.8164 18.7274L56.18 28.091L46.8164 37.4545L37.4528 28.091L46.8164 18.7274Z" fill="#9984B6"/>
<path d="M18.7266 9.3634L28.0901 18.727L18.7266 28.0905L9.36301 18.727L18.7266 9.3634Z" fill="#8993C4"/>
<path d="M9.36328 18.7274L18.7268 28.091L9.36328 37.4545L-0.000276224 28.091L9.36328 18.7274Z" fill="#D796C3"/>
<path d="M18.7266 28.0908L28.0901 37.4544L18.7266 46.8179L9.36301 37.4544L18.7266 28.0908Z" fill="#00C8C7"/>
<path d="M37.4531 28.0903L46.8167 37.4539L37.4531 46.8174L28.0896 37.4539L37.4531 28.0903Z" fill="#6F7EA6"/>
<path d="M28.0923 15.6097C26.3719 17.3006 19.4414 24.4293 19.4414 29.512C19.4414 33.9621 23.3224 37.5829 28.0923 37.5829C32.8622 37.5829 36.7432 33.9621 36.7432 29.512C36.7432 24.4262 29.8128 17.2996 28.0923 15.6097Z" fill="white"/>
<path d="M28.0923 15.6097C26.3719 17.3006 19.4414 24.4293 19.4414 29.512C19.4414 33.9621 23.3224 37.5829 28.0923 37.5829C32.8622 37.5829 36.7432 33.9621 36.7432 29.512C36.7432 24.4262 29.8128 17.2996 28.0923 15.6097Z" fill="white"/>
<path fill-rule="evenodd" clip-rule="evenodd" d="M28.091 14.147L28.8148 14.8579C29.6919 15.7194 31.8983 17.9671 33.8928 20.659C34.8901 22.0049 35.851 23.484 36.5663 24.9743C37.276 26.4528 37.7801 28.0166 37.7801 29.512C37.7801 34.6183 33.355 38.6316 28.0912 38.6316C22.8274 38.6316 18.4023 34.6183 18.4023 29.512C18.4023 28.0172 18.9065 26.4539 19.6161 24.9757C20.3314 23.4857 21.2924 22.0066 22.2896 20.6605C24.2841 17.9685 26.4904 15.7201 27.3675 14.8581L28.091 14.147ZM19.4403 29.512C19.4403 24.4293 26.3708 17.3006 28.0912 15.6097C29.8117 17.2996 36.7421 24.4262 36.7421 29.512C36.7421 33.9621 32.8611 37.5829 28.0912 37.5829C23.3213 37.5829 19.4403 33.9621 19.4403 29.512Z" fill="#338CB8"/>
<path d="M74.3918 26.4865H74.4631L91.2119 6.85803H91.4647V31.8674H89.073V12.6981H89.0017L72.2528 32.4365H72V7.42716H74.3918V26.4865Z" fill="#2B3637"/>
<path d="M98.2065 13.9847V21.8232H108.059V13.9847H110.243V31.867H108.065V23.8151H98.213V31.867H96.0352V13.9847H98.2065Z" fill="#2B3637"/>
<path d="M125.273 31.867H123.095V22.748L114.986 31.867H112.342L120.911 22.3212L113.489 13.9847H115.881L123.095 22.25V13.9847H125.273V22.25L132.487 13.9847H134.918L127.451 22.3212L136.02 31.867H133.375L125.266 22.748V31.867H125.273Z" fill="#2B3637"/>
<path d="M155.906 11.0615C155.05 10.3953 154.137 9.91026 153.171 9.59983C152.205 9.2894 151.213 9.13418 150.189 9.13418C148.426 9.13418 146.896 9.45108 145.6 10.0978C144.304 10.7381 143.234 11.5724 142.385 12.5942C141.542 13.6161 140.907 14.7543 140.492 16.0155C140.078 17.2766 139.87 18.5183 139.87 19.7536C139.87 21.157 140.136 22.4828 140.674 23.744C141.212 25.0051 141.951 26.1046 142.904 27.0553C143.856 28.006 144.965 28.7626 146.222 29.3188C147.48 29.875 148.854 30.1531 150.325 30.1531C151.038 30.1531 151.887 30.0044 152.86 29.7069C153.832 29.4094 154.785 28.9049 155.718 28.1935L155.362 31.2914C154.649 31.6018 153.819 31.867 152.879 32.0933C151.939 32.3197 150.896 32.4297 149.755 32.4297C147.778 32.4297 146.021 32.0351 144.492 31.2526C142.955 30.47 141.653 29.4611 140.583 28.2259C139.514 26.9906 138.697 25.6066 138.14 24.0738C137.582 22.541 137.297 21.0406 137.297 19.566C137.297 17.8781 137.621 16.2677 138.263 14.7414C138.904 13.2086 139.805 11.8569 140.959 10.6799C142.113 9.50282 143.48 8.57152 145.062 7.88598C146.644 7.19397 148.361 6.8512 150.222 6.8512C150.915 6.8512 151.732 6.92234 152.685 7.06462C153.637 7.2069 154.577 7.51734 155.504 7.98945L155.906 11.0615Z" fill="#2B3637"/>
<path d="M157.514 15.9767V13.9783H169.868V15.9767H164.689V31.867H162.511V15.9767H157.514Z" fill="#2B3637"/>
<path d="M175.113 21.8232H184.686C184.544 20.8013 184.239 19.9024 183.772 19.1133C183.305 18.3308 182.748 17.6711 182.093 17.1343C181.439 16.5975 180.7 16.203 179.877 15.9443C179.053 15.6856 178.204 15.5498 177.323 15.5498C176.441 15.5498 175.566 15.6986 174.698 15.9961C173.829 16.2936 173.012 16.7398 172.254 17.3348L170.971 15.6598C172.092 14.8513 173.213 14.3016 174.341 14.0041C175.469 13.7066 176.454 13.5579 177.29 13.5579C178.6 13.5579 179.844 13.7778 181.017 14.2175C182.197 14.6573 183.221 15.2846 184.09 16.106C184.958 16.9274 185.652 17.9169 186.164 19.081C186.676 20.2451 186.929 21.5386 186.929 22.9614C186.929 24.339 186.695 25.6066 186.216 26.7578C185.736 27.909 185.081 28.8985 184.232 29.7134C183.39 30.5347 182.385 31.1685 181.231 31.6212C180.078 32.0739 178.807 32.3003 177.427 32.3003C176.571 32.3003 175.599 32.158 174.516 31.8735C173.434 31.5889 172.274 30.9939 171.036 30.0949L172.073 28.4199C172.714 28.8985 173.499 29.3318 174.432 29.7198C175.359 30.1143 176.422 30.3083 177.608 30.3083C178.561 30.3083 179.449 30.1531 180.266 29.8427C181.089 29.5323 181.815 29.0925 182.443 28.5234C183.072 27.9542 183.584 27.2687 183.98 26.4732C184.368 25.6777 184.602 24.7917 184.673 23.8216H175.1V21.8232H175.113Z" fill="#2B3637"/>
<path d="M203.644 13.9847V31.867H201.466V15.9767H191.789V31.867H189.611V13.9847H203.644Z" fill="#2B3637"/>
<path d="M91.6328 40.986H92.4106V42.0273H92.4366C92.4625 41.982 92.5143 41.8979 92.6051 41.775C92.6893 41.6457 92.819 41.5164 92.9875 41.3741C93.156 41.2318 93.3699 41.1089 93.6227 40.999C93.8755 40.889 94.1866 40.8308 94.5431 40.8308C94.8218 40.8308 95.0941 40.8825 95.3598 40.9796C95.6256 41.0766 95.8589 41.2253 96.0599 41.4193C96.2608 41.6134 96.4293 41.8591 96.5525 42.1502C96.6756 42.4412 96.7404 42.7775 96.7404 43.1591V47.3693H95.9626V43.1591C95.9626 42.6093 95.8071 42.2019 95.5024 41.9367C95.1978 41.6716 94.8283 41.5422 94.394 41.5422C94.0959 41.5422 93.8237 41.6004 93.5838 41.7168C93.344 41.8333 93.1301 41.9885 92.9616 42.189C92.7866 42.3894 92.6504 42.6223 92.5597 42.8939C92.469 43.1655 92.4171 43.4566 92.4171 43.7735V47.3758H91.6393V40.986H91.6328Z" fill="#2B3637"/>
<path d="M101.026 46.8131C101.46 46.8131 101.862 46.7096 102.225 46.5027C102.588 46.2957 102.886 46.0176 103.119 45.6684H104.027C103.891 45.94 103.716 46.1923 103.508 46.4186C103.301 46.645 103.067 46.8455 102.815 47.0071C102.562 47.1688 102.283 47.2982 101.978 47.3887C101.674 47.4793 101.363 47.5245 101.026 47.5245C100.565 47.5245 100.131 47.434 99.7228 47.2658C99.3144 47.0912 98.9579 46.8519 98.6598 46.548C98.3551 46.244 98.1218 45.8883 97.9468 45.4808C97.7718 45.0734 97.6875 44.6401 97.6875 44.1809C97.6875 43.7153 97.7653 43.2755 97.9273 42.868C98.0894 42.4606 98.3162 42.1049 98.6014 41.8074C98.8931 41.5034 99.2302 41.2706 99.6191 41.096C100.008 40.9214 100.436 40.8373 100.896 40.8373C101.415 40.8373 101.875 40.9278 102.283 41.096C102.691 41.2706 103.035 41.5099 103.314 41.8074C103.592 42.1113 103.806 42.4606 103.949 42.868C104.091 43.2755 104.163 43.7153 104.163 44.1809H98.4783C98.4783 44.5366 98.5431 44.8794 98.6792 45.1963C98.8153 45.5196 98.9968 45.7977 99.2302 46.037C99.457 46.2763 99.7293 46.4639 100.034 46.5997C100.352 46.742 100.682 46.8131 101.026 46.8131ZM103.288 43.463C103.242 43.1849 103.158 42.9327 103.028 42.6999C102.899 42.4671 102.73 42.2666 102.523 42.0919C102.315 41.9173 102.076 41.7815 101.803 41.6845C101.525 41.5875 101.227 41.5422 100.902 41.5422C100.611 41.5422 100.345 41.5875 100.092 41.6845C99.8394 41.7815 99.6191 41.9173 99.4246 42.0919C99.2302 42.2666 99.0616 42.4671 98.9126 42.6999C98.77 42.9327 98.6598 43.1849 98.582 43.463H103.288Z" fill="#2B3637"/>
<path d="M105.542 40.986L107.454 43.5276H107.506L109.367 40.986H110.313L108.005 44.0903L110.54 47.3757H109.47L107.493 44.7176H107.441L105.555 47.3757H104.512L107.001 44.1162L104.602 40.986H105.542Z" fill="#2B3637"/>
<path d="M111.559 39.4209H112.337V40.986H114.074V41.6974H112.337V45.6684C112.337 45.7783 112.343 45.9012 112.363 46.037C112.382 46.1728 112.427 46.2957 112.499 46.4121C112.57 46.5285 112.687 46.6191 112.836 46.6967C112.991 46.7743 113.205 46.8131 113.484 46.8131C113.575 46.8131 113.665 46.8066 113.75 46.7872C113.834 46.7678 113.944 46.729 114.08 46.6579V47.3952C113.84 47.4792 113.581 47.5245 113.302 47.5245C113.063 47.5245 112.836 47.4922 112.628 47.4275C112.414 47.3628 112.233 47.2594 112.071 47.1171C111.915 46.9748 111.786 46.7872 111.695 46.5544C111.604 46.3281 111.552 46.0435 111.552 45.7137V41.6909H110.865L110.878 40.9795H111.552V39.4209H111.559Z" fill="#2B3637"/>
<path d="M121.171 42.1696C121.028 42.0337 120.879 41.9238 120.73 41.8397C120.581 41.7556 120.438 41.691 120.309 41.6457C120.179 41.6004 120.05 41.5746 119.933 41.5616C119.816 41.5487 119.713 41.5422 119.628 41.5422C119.401 41.5422 119.2 41.5746 119.045 41.6392C118.883 41.7039 118.753 41.7815 118.656 41.8785C118.559 41.9755 118.487 42.0855 118.442 42.2148C118.397 42.3442 118.371 42.4671 118.371 42.5964C118.371 42.8357 118.423 43.0232 118.526 43.1591C118.63 43.2949 118.76 43.4048 118.928 43.4889C119.097 43.573 119.278 43.6441 119.492 43.6959C119.7 43.7476 119.913 43.7993 120.121 43.864C120.276 43.9093 120.445 43.9675 120.633 44.0451C120.821 44.1227 120.996 44.2262 121.158 44.362C121.32 44.4978 121.456 44.666 121.56 44.8729C121.664 45.0799 121.722 45.3321 121.722 45.6361C121.722 45.9271 121.664 46.1858 121.553 46.4186C121.443 46.6514 121.288 46.8519 121.087 47.0136C120.886 47.1818 120.646 47.3046 120.367 47.3952C120.088 47.4857 119.784 47.531 119.447 47.531C119.33 47.531 119.194 47.5181 119.038 47.4987C118.883 47.4793 118.721 47.4275 118.539 47.3564C118.358 47.2852 118.176 47.1882 117.982 47.0589C117.794 46.9295 117.599 46.7614 117.418 46.548L117.93 45.9982C117.995 46.0823 118.079 46.1729 118.176 46.2699C118.274 46.3669 118.384 46.4574 118.513 46.535C118.643 46.6126 118.786 46.6838 118.954 46.729C119.123 46.7808 119.298 46.8067 119.499 46.8067C119.881 46.8067 120.212 46.7096 120.497 46.5092C120.776 46.3087 120.918 46.0306 120.918 45.6619C120.918 45.4356 120.866 45.2416 120.769 45.0928C120.672 44.9441 120.542 44.8212 120.38 44.7306C120.218 44.6401 120.037 44.5625 119.823 44.5043C119.615 44.4461 119.401 44.3814 119.181 44.3103C119.038 44.265 118.876 44.2132 118.688 44.1421C118.507 44.071 118.332 43.9675 118.17 43.8317C118.008 43.6958 117.872 43.5277 117.762 43.3143C117.651 43.1073 117.593 42.8486 117.593 42.5447C117.593 42.3442 117.632 42.1372 117.716 41.9367C117.794 41.7298 117.917 41.5487 118.086 41.3805C118.254 41.2124 118.462 41.083 118.708 40.9796C118.961 40.8761 119.259 40.8243 119.609 40.8243C119.92 40.8243 120.251 40.8761 120.588 40.9796C120.925 41.083 121.268 41.2835 121.605 41.5875L121.171 42.1696Z" fill="#2B3637"/>
<path d="M123.012 39.4209H123.79V40.986H125.52V41.6974H123.79V45.6684C123.79 45.7783 123.796 45.9012 123.816 46.037C123.835 46.1728 123.88 46.2957 123.952 46.4121C124.023 46.5285 124.14 46.6191 124.289 46.6967C124.438 46.7743 124.658 46.8131 124.937 46.8131C125.028 46.8131 125.118 46.8066 125.203 46.7872C125.287 46.7678 125.397 46.729 125.533 46.6579V47.3952C125.293 47.4792 125.034 47.5245 124.756 47.5245C124.516 47.5245 124.289 47.4922 124.081 47.4275C123.867 47.3628 123.686 47.2594 123.524 47.1171C123.368 46.9748 123.239 46.7872 123.148 46.5544C123.057 46.3281 123.005 46.0435 123.005 45.7137V41.6909H122.318L122.331 40.9795H123.005V39.4209H123.012Z" fill="#2B3637"/>
<path d="M129.28 46.8131C129.714 46.8131 130.116 46.7096 130.479 46.5027C130.842 46.2957 131.14 46.0176 131.373 45.6684H132.281C132.144 45.94 131.976 46.1923 131.762 46.4186C131.555 46.645 131.321 46.8455 131.068 47.0071C130.816 47.1753 130.537 47.2982 130.232 47.3887C129.928 47.4793 129.617 47.5245 129.28 47.5245C128.819 47.5245 128.385 47.434 127.977 47.2658C127.568 47.0912 127.212 46.8519 126.914 46.548C126.609 46.244 126.376 45.8883 126.201 45.4808C126.026 45.0734 125.941 44.6401 125.941 44.1809C125.941 43.7153 126.019 43.2755 126.181 42.868C126.343 42.4606 126.57 42.1049 126.855 41.8074C127.141 41.5034 127.484 41.2706 127.873 41.096C128.262 40.9214 128.69 40.8373 129.15 40.8373C129.668 40.8373 130.129 40.9278 130.537 41.096C130.945 41.2706 131.289 41.5099 131.568 41.8074C131.846 42.1113 132.06 42.4606 132.203 42.868C132.345 43.2755 132.417 43.7153 132.417 44.1809H126.732C126.732 44.5366 126.803 44.8794 126.94 45.1963C127.076 45.5196 127.257 45.7977 127.491 46.037C127.717 46.2763 127.99 46.4639 128.294 46.5997C128.605 46.742 128.936 46.8131 129.28 46.8131ZM131.542 43.463C131.496 43.1849 131.412 42.9327 131.282 42.6999C131.153 42.4671 130.984 42.2666 130.777 42.0919C130.569 41.9173 130.33 41.7815 130.057 41.6845C129.779 41.5875 129.48 41.5422 129.156 41.5422C128.865 41.5422 128.599 41.5875 128.346 41.6845C128.093 41.7815 127.873 41.9173 127.679 42.0919C127.484 42.2666 127.316 42.4671 127.166 42.6999C127.024 42.9327 126.914 43.1849 126.836 43.463H131.542Z" fill="#2B3637"/>
<path d="M134.18 40.986V42.286H134.231C134.53 41.8009 134.893 41.4387 135.327 41.1995C135.761 40.9602 136.254 40.8373 136.805 40.8373C137.304 40.8373 137.764 40.9214 138.172 41.0895C138.581 41.2577 138.924 41.497 139.209 41.7945C139.495 42.0984 139.715 42.4477 139.871 42.8551C140.026 43.2625 140.104 43.7023 140.104 44.1809C140.104 44.6724 140.02 45.1187 139.851 45.5261C139.683 45.9336 139.449 46.2828 139.158 46.5803C138.866 46.8778 138.522 47.1106 138.133 47.2723C137.744 47.4405 137.323 47.5181 136.869 47.5181C136.643 47.5181 136.403 47.4922 136.163 47.4469C135.923 47.4017 135.683 47.3241 135.45 47.2206C135.217 47.1171 134.99 46.9813 134.782 46.8131C134.568 46.645 134.38 46.4445 134.225 46.1987H134.186V49.7493H133.408V40.986H134.18ZM136.74 41.5422C136.364 41.5422 136.02 41.6134 135.709 41.7621C135.398 41.9109 135.126 42.1049 134.899 42.3506C134.672 42.5964 134.497 42.881 134.368 43.2043C134.238 43.5277 134.18 43.864 134.18 44.2068C134.18 44.5884 134.251 44.9376 134.4 45.2545C134.549 45.5714 134.743 45.843 134.99 46.0758C135.236 46.3022 135.521 46.4833 135.839 46.6126C136.156 46.742 136.481 46.8002 136.818 46.8002C137.155 46.8002 137.479 46.7355 137.777 46.6126C138.082 46.4898 138.341 46.3151 138.568 46.0823C138.795 45.856 138.97 45.5779 139.106 45.261C139.235 44.9441 139.3 44.5884 139.3 44.2003C139.3 43.7993 139.235 43.4372 139.112 43.1138C138.983 42.7904 138.808 42.5059 138.581 42.2666C138.354 42.0273 138.088 41.8462 137.77 41.7168C137.459 41.6069 137.116 41.5422 136.74 41.5422Z" fill="#2B3637"/>
<path d="M144.316 47.3693V40.9795H145.094V47.3693H144.316Z" fill="#2B3637"/>
<path d="M150.026 42.1696C149.884 42.0337 149.735 41.9238 149.586 41.8397C149.437 41.7556 149.294 41.691 149.164 41.6457C149.035 41.6004 148.905 41.5746 148.788 41.5616C148.672 41.5487 148.568 41.5422 148.484 41.5422C148.257 41.5422 148.056 41.5746 147.9 41.6392C147.738 41.7039 147.609 41.7815 147.511 41.8785C147.414 41.9755 147.343 42.0855 147.298 42.2148C147.252 42.3442 147.226 42.4671 147.226 42.5964C147.226 42.8357 147.278 43.0232 147.382 43.1591C147.486 43.2949 147.615 43.4048 147.784 43.4889C147.952 43.573 148.134 43.6441 148.348 43.6959C148.555 43.7476 148.769 43.7993 148.976 43.864C149.132 43.9093 149.3 43.9675 149.488 44.0451C149.676 44.1227 149.851 44.2262 150.013 44.362C150.175 44.4978 150.312 44.666 150.415 44.8729C150.519 45.0799 150.577 45.3321 150.577 45.6361C150.577 45.9271 150.519 46.1858 150.409 46.4186C150.299 46.6514 150.143 46.8519 149.942 47.0136C149.741 47.1753 149.501 47.3046 149.223 47.3952C148.944 47.4857 148.639 47.531 148.302 47.531C148.186 47.531 148.049 47.5181 147.894 47.4987C147.738 47.4793 147.576 47.4275 147.395 47.3564C147.213 47.2852 147.032 47.1882 146.837 47.0589C146.649 46.9295 146.455 46.7614 146.273 46.548L146.785 45.9982C146.85 46.0823 146.935 46.1729 147.032 46.2699C147.129 46.3669 147.239 46.4574 147.369 46.535C147.498 46.6126 147.641 46.6838 147.81 46.729C147.978 46.7808 148.153 46.8067 148.354 46.8067C148.737 46.8067 149.067 46.7096 149.352 46.5092C149.631 46.3087 149.774 46.0306 149.774 45.6619C149.774 45.4356 149.722 45.2416 149.625 45.0928C149.527 44.9441 149.398 44.8212 149.236 44.7306C149.074 44.6401 148.892 44.5625 148.678 44.5043C148.471 44.4461 148.257 44.3814 148.036 44.3103C147.894 44.265 147.732 44.2132 147.544 44.1421C147.362 44.071 147.187 43.9675 147.025 43.8317C146.863 43.6958 146.727 43.5277 146.617 43.3143C146.507 43.1073 146.448 42.8486 146.448 42.5447C146.448 42.3442 146.487 42.1372 146.572 41.9367C146.649 41.7298 146.773 41.5487 146.941 41.3805C147.11 41.2124 147.317 41.083 147.563 40.9796C147.816 40.8761 148.114 40.8243 148.464 40.8243C148.775 40.8243 149.106 40.8761 149.443 40.9796C149.78 41.083 150.124 41.2835 150.461 41.5875L150.026 42.1696Z" fill="#2B3637"/>
<path d="M154.883 40.986L157.372 45.4873H157.424L159.582 40.986H160.386C159.699 42.4799 158.992 43.961 158.26 45.442C157.534 46.9165 156.801 48.3523 156.063 49.7557H155.181L156.938 46.3604L154.008 40.9924H154.883V40.986Z" fill="#2B3637"/>
<path d="M160.773 44.1809C160.773 43.7153 160.858 43.2755 161.033 42.868C161.208 42.4606 161.448 42.1049 161.752 41.8074C162.057 41.5034 162.413 41.2706 162.815 41.096C163.217 40.9214 163.651 40.8373 164.112 40.8373C164.572 40.8373 165 40.9278 165.408 41.096C165.81 41.2706 166.166 41.5099 166.471 41.8074C166.776 42.1113 167.015 42.4606 167.19 42.868C167.365 43.2755 167.45 43.7153 167.45 44.1809C167.45 44.6401 167.359 45.0734 167.19 45.4808C167.015 45.8883 166.776 46.244 166.477 46.548C166.179 46.8519 165.823 47.0912 165.414 47.2658C165.006 47.4405 164.572 47.5245 164.112 47.5245C163.651 47.5245 163.217 47.434 162.809 47.2658C162.4 47.0912 162.044 46.8519 161.746 46.548C161.448 46.244 161.208 45.8883 161.033 45.4808C160.864 45.0669 160.773 44.6336 160.773 44.1809ZM161.577 44.1809C161.577 44.5366 161.648 44.8794 161.785 45.1963C161.921 45.5196 162.102 45.7977 162.336 46.037C162.562 46.2763 162.835 46.4639 163.139 46.5997C163.444 46.742 163.774 46.8067 164.118 46.8067C164.475 46.8067 164.805 46.7355 165.116 46.5997C165.421 46.4574 165.693 46.2699 165.92 46.0241C166.147 45.7848 166.328 45.5002 166.464 45.1833C166.594 44.8664 166.659 44.5301 166.659 44.1744C166.659 43.8187 166.594 43.476 166.464 43.1591C166.335 42.8357 166.153 42.5576 165.92 42.3183C165.693 42.079 165.421 41.8915 165.11 41.7492C164.799 41.6069 164.468 41.5422 164.125 41.5422C163.781 41.5422 163.45 41.6134 163.146 41.7492C162.841 41.8915 162.569 42.079 162.342 42.3183C162.115 42.5576 161.927 42.8357 161.791 43.1526C161.648 43.4695 161.577 43.8123 161.577 44.1809Z" fill="#2B3637"/>
<path d="M169.194 40.986V45.0733C169.194 45.1833 169.207 45.3385 169.227 45.5325C169.246 45.7265 169.305 45.9206 169.402 46.1146C169.493 46.3021 169.642 46.4703 169.849 46.6126C170.057 46.7549 170.335 46.8195 170.705 46.8195C171.165 46.8195 171.528 46.7225 171.794 46.535C172.059 46.3474 172.26 46.1016 172.396 45.8106C172.533 45.5196 172.623 45.1962 172.656 44.8534C172.695 44.5042 172.714 44.1808 172.714 43.8769V40.9989H173.492V47.3887H172.714V46.4315H172.688C172.546 46.6837 172.377 46.8907 172.183 47.033C171.995 47.1817 171.8 47.2916 171.606 47.3693C171.411 47.4469 171.223 47.4921 171.048 47.5115C170.873 47.5309 170.731 47.5374 170.607 47.5374C170.549 47.5374 170.452 47.5309 170.322 47.5245C170.193 47.518 170.044 47.4857 169.875 47.4404C169.707 47.3951 169.544 47.324 169.369 47.2334C169.194 47.1429 169.045 47.0136 168.896 46.8454C168.754 46.6772 168.637 46.4703 168.546 46.2181C168.456 45.9658 168.41 45.6554 168.41 45.2868V40.9989H169.194V40.986Z" fill="#2B3637"/>
<path d="M178.203 41.6845C178.035 41.6263 177.853 41.5939 177.665 41.5939C177.393 41.5939 177.134 41.6586 176.894 41.7879C176.654 41.9173 176.434 42.0984 176.246 42.3312C176.058 42.564 175.902 42.8292 175.792 43.1332C175.682 43.4371 175.624 43.767 175.624 44.1097V47.3693H174.846V40.9795H175.585V42.3312H175.624C175.792 41.8203 176.097 41.4322 176.531 41.1541C176.965 40.876 177.464 40.7402 178.022 40.7402C178.093 40.7402 178.158 40.7402 178.216 40.7467C178.281 40.7532 178.346 40.7596 178.411 40.7661L178.203 41.6845Z" fill="#2B3637"/>
<path d="M182.437 42.1696C182.294 42.0337 182.145 41.9238 181.996 41.8397C181.847 41.7556 181.704 41.691 181.574 41.6457C181.445 41.6004 181.315 41.5746 181.199 41.5616C181.082 41.5487 180.978 41.5422 180.894 41.5422C180.667 41.5422 180.466 41.5746 180.311 41.6392C180.148 41.7039 180.019 41.7815 179.922 41.8785C179.824 41.9755 179.753 42.0855 179.708 42.2148C179.662 42.3442 179.636 42.4671 179.636 42.5964C179.636 42.8357 179.688 43.0232 179.792 43.1591C179.896 43.2949 180.025 43.4048 180.194 43.4889C180.362 43.573 180.544 43.6441 180.758 43.6959C180.965 43.7476 181.179 43.7993 181.386 43.864C181.542 43.9093 181.711 43.9675 181.899 44.0451C182.087 44.1227 182.262 44.2262 182.424 44.362C182.586 44.4978 182.722 44.666 182.825 44.8729C182.929 45.0799 182.987 45.3321 182.987 45.6361C182.987 45.9271 182.929 46.1858 182.819 46.4186C182.709 46.6514 182.553 46.8519 182.352 47.0136C182.151 47.1753 181.912 47.3046 181.633 47.3952C181.354 47.4857 181.049 47.531 180.712 47.531C180.596 47.531 180.46 47.5181 180.304 47.4987C180.148 47.4793 179.986 47.4275 179.805 47.3564C179.623 47.2852 179.442 47.1882 179.248 47.0589C179.06 46.9295 178.865 46.7614 178.684 46.548L179.196 45.9982C179.26 46.0823 179.345 46.1729 179.442 46.2699C179.539 46.3669 179.649 46.4574 179.779 46.535C179.909 46.6126 180.051 46.6838 180.22 46.729C180.388 46.7808 180.563 46.8067 180.764 46.8067C181.147 46.8067 181.477 46.7096 181.762 46.5092C182.041 46.3087 182.184 46.0306 182.184 45.6619C182.184 45.4356 182.132 45.2416 182.035 45.0928C181.937 44.9441 181.808 44.8212 181.646 44.7306C181.484 44.6401 181.302 44.5625 181.088 44.5043C180.881 44.4461 180.667 44.3814 180.447 44.3103C180.304 44.265 180.142 44.2132 179.954 44.1421C179.773 44.071 179.598 43.9675 179.435 43.8317C179.273 43.6958 179.137 43.5277 179.027 43.3143C178.917 43.1073 178.859 42.8486 178.859 42.5447C178.859 42.3442 178.897 42.1372 178.982 41.9367C179.06 41.7298 179.183 41.5487 179.351 41.3805C179.52 41.2124 179.727 41.083 179.973 40.9796C180.22 40.8761 180.524 40.8243 180.874 40.8243C181.186 40.8243 181.516 40.8761 181.853 40.9796C182.19 41.083 182.534 41.2835 182.871 41.5875L182.437 42.1696Z" fill="#2B3637"/>
</svg>
