<svg width="204" height="57" viewBox="0 0 204 57" fill="none" xmlns="http://www.w3.org/2000/svg">
<path d="M28.0908 0L37.4544 9.36356L28.0908 18.7271L18.7273 9.36356L28.0908 0Z" fill="#00A7C9"/>
<path d="M28.0908 37.4543L37.4544 46.8178L28.0908 56.1814L18.7273 46.8178L28.0908 37.4543Z" fill="#0F93A1"/>
<path d="M37.4541 9.36343L46.8177 18.727L37.4541 28.0905L28.0905 18.727L37.4541 9.36343Z" fill="#FFBF6D"/>
<path d="M46.8174 18.7274L56.1809 28.0909L46.8174 37.4545L37.4538 28.0909L46.8174 18.7274Z" fill="#9984B6"/>
<path d="M18.7266 9.36343L28.0901 18.727L18.7266 28.0905L9.36301 18.727L18.7266 9.36343Z" fill="#8993C4"/>
<path d="M9.36328 18.7274L18.7268 28.0909L9.36328 37.4545L-0.000276224 28.0909L9.36328 18.7274Z" fill="#D796C3"/>
<path d="M18.7266 28.0908L28.0901 37.4543L18.7266 46.8179L9.36301 37.4543L18.7266 28.0908Z" fill="#00C8C7"/>
<path d="M37.4541 28.0903L46.8177 37.4539L37.4541 46.8174L28.0905 37.4539L37.4541 28.0903Z" fill="#6F7EA6"/>
<path d="M28.0923 15.6098C26.3719 17.3006 19.4414 24.4293 19.4414 29.512C19.4414 33.9621 23.3224 37.5829 28.0923 37.5829C32.8622 37.5829 36.7432 33.9621 36.7432 29.512C36.7432 24.4263 29.8128 17.2996 28.0923 15.6098Z" fill="white"/>
<path d="M28.0923 15.6098C26.3719 17.3006 19.4414 24.4293 19.4414 29.512C19.4414 33.9621 23.3224 37.5829 28.0923 37.5829C32.8622 37.5829 36.7432 33.9621 36.7432 29.512C36.7432 24.4263 29.8128 17.2996 28.0923 15.6098Z" fill="white"/>
<path fill-rule="evenodd" clip-rule="evenodd" d="M28.091 14.147L28.8148 14.8579C29.6919 15.7194 31.8983 17.9671 33.8928 20.659C34.8901 22.0049 35.851 23.484 36.5663 24.9743C37.276 26.4528 37.7801 28.0166 37.7801 29.512C37.7801 34.6183 33.355 38.6316 28.0912 38.6316C22.8274 38.6316 18.4023 34.6183 18.4023 29.512C18.4023 28.0172 18.9065 26.4539 19.6161 24.9757C20.3314 23.4857 21.2924 22.0066 22.2896 20.6605C24.2841 17.9685 26.4904 15.7201 27.3675 14.8581L28.091 14.147ZM19.4403 29.512C19.4403 24.4293 26.3708 17.3006 28.0912 15.6097C29.8117 17.2996 36.7421 24.4262 36.7421 29.512C36.7421 33.9621 32.8611 37.5829 28.0912 37.5829C23.3213 37.5829 19.4403 33.9621 19.4403 29.512Z" fill="#338CB8"/>
<path d="M74.3918 26.4866H74.4631L91.2119 6.85809H91.4647V31.8674H89.073V12.6981H89.0017L72.2528 32.4365H72V7.42722H74.3918V26.4866Z" fill="white"/>
<path d="M98.2056 13.9848V21.8232H108.058V13.9848H110.242V31.8671H108.064V23.8152H98.212V31.8671H96.0342V13.9848H98.2056Z" fill="white"/>
<path d="M125.274 31.8671H123.096V22.7481L114.987 31.8671H112.343L120.912 22.3212L113.49 13.9848H115.882L123.096 22.2501V13.9848H125.274V22.2501L132.488 13.9848H134.919L127.452 22.3212L136.021 31.8671H133.376L125.267 22.7481V31.8671H125.274Z" fill="white"/>
<path d="M155.907 11.0615C155.051 10.3954 154.137 9.91032 153.172 9.59989C152.206 9.28946 151.214 9.13424 150.19 9.13424C148.427 9.13424 146.897 9.45114 145.601 10.0979C144.305 10.7381 143.235 11.5724 142.386 12.5943C141.543 13.6161 140.908 14.7544 140.493 16.0155C140.079 17.2767 139.871 18.5184 139.871 19.7537C139.871 21.1571 140.137 22.4829 140.675 23.744C141.213 25.0052 141.952 26.1046 142.905 27.0553C143.857 28.006 144.966 28.7627 146.223 29.3189C147.481 29.8751 148.855 30.1532 150.326 30.1532C151.039 30.1532 151.888 30.0044 152.861 29.7069C153.833 29.4094 154.786 28.905 155.719 28.1936L155.363 31.2915C154.65 31.6019 153.82 31.8671 152.88 32.0934C151.94 32.3198 150.897 32.4297 149.756 32.4297C147.779 32.4297 146.022 32.0352 144.493 31.2526C142.956 30.4701 141.654 29.4612 140.584 28.2259C139.515 26.9907 138.698 25.6066 138.14 24.0739C137.583 22.5411 137.298 21.0407 137.298 19.5661C137.298 17.8781 137.622 16.2677 138.264 14.7415C138.905 13.2087 139.806 11.857 140.96 10.6799C142.114 9.50288 143.481 8.57158 145.063 7.88604C146.645 7.19403 148.362 6.85126 150.222 6.85126C150.916 6.85126 151.733 6.9224 152.686 7.06468C153.638 7.20696 154.578 7.5174 155.505 7.98951L155.907 11.0615Z" fill="white"/>
<path d="M157.514 15.9767V13.9783H169.868V15.9767H164.689V31.867H162.511V15.9767H157.514Z" fill="white"/>
<path d="M175.113 21.8232H184.686C184.544 20.8014 184.239 19.9024 183.772 19.1134C183.305 18.3308 182.748 17.6712 182.093 17.1344C181.439 16.5976 180.7 16.2031 179.877 15.9444C179.053 15.6857 178.204 15.5499 177.323 15.5499C176.441 15.5499 175.566 15.6986 174.698 15.9961C173.829 16.2936 173.012 16.7399 172.254 17.3349L170.971 15.6598C172.092 14.8514 173.213 14.3017 174.341 14.0042C175.469 13.7067 176.454 13.5579 177.29 13.5579C178.6 13.5579 179.844 13.7778 181.017 14.2176C182.197 14.6574 183.221 15.2847 184.09 16.1061C184.958 16.9274 185.652 17.9169 186.164 19.0811C186.676 20.2452 186.929 21.5387 186.929 22.9615C186.929 24.339 186.695 25.6066 186.216 26.7578C185.736 27.909 185.081 28.8985 184.232 29.7134C183.39 30.5348 182.385 31.1686 181.231 31.6213C180.078 32.074 178.807 32.3004 177.427 32.3004C176.571 32.3004 175.599 32.1581 174.516 31.8735C173.434 31.589 172.274 30.994 171.036 30.095L172.073 28.4199C172.714 28.8985 173.499 29.3318 174.432 29.7199C175.359 30.1144 176.422 30.3084 177.608 30.3084C178.561 30.3084 179.449 30.1532 180.266 29.8428C181.089 29.5323 181.815 29.0925 182.443 28.5234C183.072 27.9543 183.584 27.2687 183.98 26.4733C184.368 25.6778 184.602 24.7917 184.673 23.8216H175.1V21.8232H175.113Z" fill="white"/>
<path d="M203.644 13.9848V31.8671H201.466V15.9767H191.789V31.8671H189.611V13.9848H203.644Z" fill="white"/>
<path d="M91.6328 40.986H92.4106V42.0273H92.4366C92.4625 41.982 92.5143 41.8979 92.6051 41.775C92.6893 41.6457 92.819 41.5164 92.9875 41.3741C93.156 41.2318 93.3699 41.1089 93.6227 40.999C93.8755 40.889 94.1866 40.8308 94.5431 40.8308C94.8218 40.8308 95.0941 40.8825 95.3598 40.9796C95.6256 41.0766 95.8589 41.2253 96.0599 41.4193C96.2608 41.6134 96.4293 41.8591 96.5525 42.1502C96.6756 42.4412 96.7404 42.7775 96.7404 43.1591V47.3693H95.9626V43.1591C95.9626 42.6093 95.8071 42.2019 95.5024 41.9367C95.1978 41.6716 94.8283 41.5422 94.394 41.5422C94.0959 41.5422 93.8237 41.6004 93.5838 41.7168C93.344 41.8333 93.1301 41.9885 92.9616 42.189C92.7866 42.3894 92.6504 42.6223 92.5597 42.8939C92.469 43.1655 92.4171 43.4566 92.4171 43.7735V47.3758H91.6393V40.986H91.6328Z" fill="white"/>
<path d="M101.026 46.8131C101.46 46.8131 101.862 46.7096 102.225 46.5027C102.588 46.2957 102.886 46.0176 103.119 45.6684H104.027C103.891 45.94 103.716 46.1923 103.508 46.4186C103.301 46.645 103.067 46.8455 102.815 47.0071C102.562 47.1688 102.283 47.2982 101.978 47.3887C101.674 47.4793 101.363 47.5245 101.026 47.5245C100.565 47.5245 100.131 47.434 99.7228 47.2658C99.3144 47.0912 98.9579 46.8519 98.6598 46.548C98.3551 46.244 98.1218 45.8883 97.9468 45.4808C97.7718 45.0734 97.6875 44.6401 97.6875 44.1809C97.6875 43.7153 97.7653 43.2755 97.9273 42.868C98.0894 42.4606 98.3162 42.1049 98.6014 41.8074C98.8931 41.5034 99.2302 41.2706 99.6191 41.096C100.008 40.9214 100.436 40.8373 100.896 40.8373C101.415 40.8373 101.875 40.9278 102.283 41.096C102.691 41.2706 103.035 41.5099 103.314 41.8074C103.592 42.1113 103.806 42.4606 103.949 42.868C104.091 43.2755 104.163 43.7153 104.163 44.1809H98.4783C98.4783 44.5366 98.5431 44.8794 98.6792 45.1963C98.8153 45.5196 98.9968 45.7977 99.2302 46.037C99.457 46.2763 99.7293 46.4639 100.034 46.5997C100.352 46.742 100.682 46.8131 101.026 46.8131ZM103.288 43.463C103.242 43.1849 103.158 42.9327 103.028 42.6999C102.899 42.4671 102.73 42.2666 102.523 42.0919C102.315 41.9173 102.076 41.7815 101.803 41.6845C101.525 41.5875 101.227 41.5422 100.902 41.5422C100.611 41.5422 100.345 41.5875 100.092 41.6845C99.8394 41.7815 99.6191 41.9173 99.4246 42.0919C99.2302 42.2666 99.0616 42.4671 98.9126 42.6999C98.77 42.9327 98.6598 43.1849 98.582 43.463H103.288Z" fill="white"/>
<path d="M105.543 40.986L107.455 43.5277H107.507L109.368 40.986H110.314L108.006 44.0904L110.541 47.3758H109.471L107.494 44.7177H107.442L105.556 47.3758H104.513L107.002 44.1162L104.603 40.986H105.543Z" fill="white"/>
<path d="M111.558 39.4209H112.336V40.986H114.073V41.6974H112.336V45.6684C112.336 45.7784 112.342 45.9012 112.362 46.0371C112.381 46.1729 112.426 46.2957 112.498 46.4122C112.569 46.5286 112.686 46.6191 112.835 46.6967C112.99 46.7743 113.204 46.8131 113.483 46.8131C113.574 46.8131 113.664 46.8067 113.749 46.7873C113.833 46.7679 113.943 46.7291 114.079 46.6579V47.3952C113.839 47.4793 113.58 47.5246 113.301 47.5246C113.062 47.5246 112.835 47.4922 112.627 47.4275C112.413 47.3629 112.232 47.2594 112.07 47.1171C111.914 46.9748 111.785 46.7873 111.694 46.5544C111.603 46.3281 111.551 46.0435 111.551 45.7137V41.691H110.864L110.877 40.9796H111.551V39.4209H111.558Z" fill="white"/>
<path d="M121.171 42.1696C121.028 42.0338 120.879 41.9238 120.73 41.8397C120.581 41.7557 120.438 41.691 120.309 41.6457C120.179 41.6005 120.05 41.5746 119.933 41.5617C119.816 41.5487 119.713 41.5422 119.628 41.5422C119.401 41.5422 119.2 41.5746 119.045 41.6393C118.883 41.7039 118.753 41.7815 118.656 41.8786C118.559 41.9756 118.487 42.0855 118.442 42.2149C118.397 42.3442 118.371 42.4671 118.371 42.5964C118.371 42.8357 118.423 43.0233 118.526 43.1591C118.63 43.2949 118.76 43.4048 118.928 43.4889C119.097 43.573 119.278 43.6441 119.492 43.6959C119.7 43.7476 119.913 43.7994 120.121 43.864C120.276 43.9093 120.445 43.9675 120.633 44.0451C120.821 44.1227 120.996 44.2262 121.158 44.362C121.32 44.4978 121.456 44.666 121.56 44.8729C121.664 45.0799 121.722 45.3321 121.722 45.6361C121.722 45.9271 121.664 46.1858 121.553 46.4186C121.443 46.6515 121.288 46.852 121.087 47.0136C120.886 47.1818 120.646 47.3047 120.367 47.3952C120.088 47.4858 119.784 47.531 119.447 47.531C119.33 47.531 119.194 47.5181 119.038 47.4987C118.883 47.4793 118.721 47.4276 118.539 47.3564C118.358 47.2853 118.176 47.1883 117.982 47.0589C117.794 46.9296 117.599 46.7614 117.418 46.548L117.93 45.9983C117.995 46.0823 118.079 46.1729 118.176 46.2699C118.274 46.3669 118.384 46.4574 118.513 46.5351C118.643 46.6127 118.786 46.6838 118.954 46.7291C119.123 46.7808 119.298 46.8067 119.499 46.8067C119.881 46.8067 120.212 46.7097 120.497 46.5092C120.776 46.3087 120.918 46.0306 120.918 45.662C120.918 45.4356 120.866 45.2416 120.769 45.0928C120.672 44.9441 120.542 44.8212 120.38 44.7307C120.218 44.6401 120.037 44.5625 119.823 44.5043C119.615 44.4461 119.401 44.3814 119.181 44.3103C119.038 44.265 118.876 44.2133 118.688 44.1421C118.507 44.071 118.332 43.9675 118.17 43.8317C118.008 43.6959 117.872 43.5277 117.762 43.3143C117.651 43.1074 117.593 42.8487 117.593 42.5447C117.593 42.3442 117.632 42.1372 117.716 41.9368C117.794 41.7298 117.917 41.5487 118.086 41.3806C118.254 41.2124 118.462 41.0831 118.708 40.9796C118.961 40.8761 119.259 40.8244 119.609 40.8244C119.92 40.8244 120.251 40.8761 120.588 40.9796C120.925 41.0831 121.268 41.2836 121.605 41.5875L121.171 42.1696Z" fill="white"/>
<path d="M123.011 39.4209H123.789V40.986H125.519V41.6974H123.789V45.6684C123.789 45.7784 123.795 45.9012 123.815 46.0371C123.834 46.1729 123.879 46.2957 123.951 46.4122C124.022 46.5286 124.139 46.6191 124.288 46.6967C124.437 46.7743 124.657 46.8131 124.936 46.8131C125.027 46.8131 125.118 46.8067 125.202 46.7873C125.286 46.7679 125.396 46.7291 125.532 46.6579V47.3952C125.293 47.4793 125.033 47.5246 124.755 47.5246C124.515 47.5246 124.288 47.4922 124.08 47.4275C123.867 47.3629 123.685 47.2594 123.523 47.1171C123.367 46.9748 123.238 46.7873 123.147 46.5544C123.056 46.3281 123.004 46.0435 123.004 45.7137V41.691H122.317L122.33 40.9796H123.004V39.4209H123.011Z" fill="white"/>
<path d="M129.28 46.8131C129.714 46.8131 130.116 46.7096 130.479 46.5027C130.842 46.2957 131.14 46.0176 131.373 45.6684H132.281C132.144 45.94 131.976 46.1923 131.762 46.4186C131.555 46.645 131.321 46.8455 131.068 47.0071C130.816 47.1753 130.537 47.2982 130.232 47.3887C129.928 47.4793 129.617 47.5245 129.28 47.5245C128.819 47.5245 128.385 47.434 127.977 47.2658C127.568 47.0912 127.212 46.8519 126.914 46.548C126.609 46.244 126.376 45.8883 126.201 45.4808C126.026 45.0734 125.941 44.6401 125.941 44.1809C125.941 43.7153 126.019 43.2755 126.181 42.868C126.343 42.4606 126.57 42.1049 126.855 41.8074C127.141 41.5034 127.484 41.2706 127.873 41.096C128.262 40.9214 128.69 40.8373 129.15 40.8373C129.668 40.8373 130.129 40.9278 130.537 41.096C130.945 41.2706 131.289 41.5099 131.568 41.8074C131.846 42.1113 132.06 42.4606 132.203 42.868C132.345 43.2755 132.417 43.7153 132.417 44.1809H126.732C126.732 44.5366 126.803 44.8794 126.94 45.1963C127.076 45.5196 127.257 45.7977 127.491 46.037C127.717 46.2763 127.99 46.4639 128.294 46.5997C128.605 46.742 128.936 46.8131 129.28 46.8131ZM131.542 43.463C131.496 43.1849 131.412 42.9327 131.282 42.6999C131.153 42.4671 130.984 42.2666 130.777 42.0919C130.569 41.9173 130.33 41.7815 130.057 41.6845C129.779 41.5875 129.48 41.5422 129.156 41.5422C128.865 41.5422 128.599 41.5875 128.346 41.6845C128.093 41.7815 127.873 41.9173 127.679 42.0919C127.484 42.2666 127.316 42.4671 127.166 42.6999C127.024 42.9327 126.914 43.1849 126.836 43.463H131.542Z" fill="white"/>
<path d="M134.18 40.986V42.286H134.231C134.53 41.8009 134.893 41.4387 135.327 41.1995C135.761 40.9602 136.254 40.8373 136.805 40.8373C137.304 40.8373 137.764 40.9214 138.172 41.0895C138.581 41.2577 138.924 41.497 139.209 41.7945C139.495 42.0984 139.715 42.4477 139.871 42.8551C140.026 43.2625 140.104 43.7023 140.104 44.1809C140.104 44.6724 140.02 45.1187 139.851 45.5261C139.683 45.9336 139.449 46.2828 139.158 46.5803C138.866 46.8778 138.522 47.1106 138.133 47.2723C137.744 47.4405 137.323 47.5181 136.869 47.5181C136.643 47.5181 136.403 47.4922 136.163 47.4469C135.923 47.4017 135.683 47.3241 135.45 47.2206C135.217 47.1171 134.99 46.9813 134.782 46.8131C134.568 46.645 134.38 46.4445 134.225 46.1987H134.186V49.7493H133.408V40.986H134.18ZM136.74 41.5422C136.364 41.5422 136.02 41.6134 135.709 41.7621C135.398 41.9109 135.126 42.1049 134.899 42.3506C134.672 42.5964 134.497 42.881 134.368 43.2043C134.238 43.5277 134.18 43.864 134.18 44.2068C134.18 44.5884 134.251 44.9376 134.4 45.2545C134.549 45.5714 134.743 45.843 134.99 46.0758C135.236 46.3022 135.521 46.4833 135.839 46.6126C136.156 46.742 136.481 46.8002 136.818 46.8002C137.155 46.8002 137.479 46.7355 137.777 46.6126C138.082 46.4898 138.341 46.3151 138.568 46.0823C138.795 45.856 138.97 45.5779 139.106 45.261C139.235 44.9441 139.3 44.5884 139.3 44.2003C139.3 43.7993 139.235 43.4372 139.112 43.1138C138.983 42.7904 138.808 42.5059 138.581 42.2666C138.354 42.0273 138.088 41.8462 137.77 41.7168C137.459 41.6069 137.116 41.5422 136.74 41.5422Z" fill="white"/>
<path d="M144.317 47.3693V40.9796H145.095V47.3693H144.317Z" fill="white"/>
<path d="M150.027 42.1696C149.885 42.0338 149.736 41.9238 149.587 41.8397C149.438 41.7557 149.295 41.691 149.165 41.6457C149.036 41.6005 148.906 41.5746 148.789 41.5617C148.673 41.5487 148.569 41.5422 148.485 41.5422C148.258 41.5422 148.057 41.5746 147.901 41.6393C147.739 41.7039 147.61 41.7815 147.512 41.8786C147.415 41.9756 147.344 42.0855 147.299 42.2149C147.253 42.3442 147.227 42.4671 147.227 42.5964C147.227 42.8357 147.279 43.0233 147.383 43.1591C147.487 43.2949 147.616 43.4048 147.785 43.4889C147.953 43.573 148.135 43.6441 148.349 43.6959C148.556 43.7476 148.77 43.7994 148.977 43.864C149.133 43.9093 149.301 43.9675 149.489 44.0451C149.677 44.1227 149.852 44.2262 150.014 44.362C150.176 44.4978 150.313 44.666 150.416 44.8729C150.52 45.0799 150.578 45.3321 150.578 45.6361C150.578 45.9271 150.52 46.1858 150.41 46.4186C150.3 46.6515 150.144 46.852 149.943 47.0136C149.742 47.1753 149.502 47.3047 149.224 47.3952C148.945 47.4858 148.64 47.531 148.303 47.531C148.187 47.531 148.05 47.5181 147.895 47.4987C147.739 47.4793 147.577 47.4276 147.396 47.3564C147.214 47.2853 147.033 47.1883 146.838 47.0589C146.65 46.9296 146.456 46.7614 146.274 46.548L146.786 45.9983C146.851 46.0823 146.936 46.1729 147.033 46.2699C147.13 46.3669 147.24 46.4574 147.37 46.5351C147.499 46.6127 147.642 46.6838 147.811 46.7291C147.979 46.7808 148.154 46.8067 148.355 46.8067C148.737 46.8067 149.068 46.7097 149.353 46.5092C149.632 46.3087 149.775 46.0306 149.775 45.662C149.775 45.4356 149.723 45.2416 149.625 45.0928C149.528 44.9441 149.399 44.8212 149.237 44.7307C149.075 44.6401 148.893 44.5625 148.679 44.5043C148.472 44.4461 148.258 44.3814 148.037 44.3103C147.895 44.265 147.733 44.2133 147.545 44.1421C147.363 44.071 147.188 43.9675 147.026 43.8317C146.864 43.6959 146.728 43.5277 146.618 43.3143C146.508 43.1074 146.449 42.8487 146.449 42.5447C146.449 42.3442 146.488 42.1372 146.573 41.9368C146.65 41.7298 146.774 41.5487 146.942 41.3806C147.111 41.2124 147.318 41.0831 147.564 40.9796C147.817 40.8761 148.115 40.8244 148.465 40.8244C148.776 40.8244 149.107 40.8761 149.444 40.9796C149.781 41.0831 150.125 41.2836 150.462 41.5875L150.027 42.1696Z" fill="white"/>
<path d="M154.882 40.986L157.371 45.4873H157.423L159.581 40.986H160.385C159.698 42.48 158.991 43.961 158.259 45.442C157.533 46.9166 156.8 48.3524 156.062 49.7558H155.18L156.937 46.3604L154.007 40.9925H154.882V40.986Z" fill="white"/>
<path d="M160.774 44.1809C160.774 43.7153 160.859 43.2755 161.034 42.868C161.209 42.4606 161.449 42.1049 161.753 41.8074C162.058 41.5034 162.414 41.2706 162.816 41.096C163.218 40.9214 163.652 40.8373 164.113 40.8373C164.573 40.8373 165.001 40.9278 165.409 41.096C165.811 41.2706 166.167 41.5099 166.472 41.8074C166.777 42.1113 167.016 42.4606 167.191 42.868C167.366 43.2755 167.451 43.7153 167.451 44.1809C167.451 44.6401 167.36 45.0734 167.191 45.4808C167.016 45.8883 166.777 46.244 166.478 46.548C166.18 46.8519 165.824 47.0912 165.415 47.2658C165.007 47.4405 164.573 47.5245 164.113 47.5245C163.652 47.5245 163.218 47.434 162.81 47.2658C162.401 47.0912 162.045 46.8519 161.747 46.548C161.449 46.244 161.209 45.8883 161.034 45.4808C160.865 45.0669 160.774 44.6336 160.774 44.1809ZM161.578 44.1809C161.578 44.5366 161.649 44.8794 161.786 45.1963C161.922 45.5196 162.103 45.7977 162.337 46.037C162.563 46.2763 162.836 46.4639 163.14 46.5997C163.445 46.742 163.775 46.8067 164.119 46.8067C164.475 46.8067 164.806 46.7355 165.117 46.5997C165.422 46.4574 165.694 46.2699 165.921 46.0241C166.148 45.7848 166.329 45.5002 166.465 45.1833C166.595 44.8664 166.66 44.5301 166.66 44.1744C166.66 43.8187 166.595 43.476 166.465 43.1591C166.336 42.8357 166.154 42.5576 165.921 42.3183C165.694 42.079 165.422 41.8915 165.111 41.7492C164.8 41.6069 164.469 41.5422 164.125 41.5422C163.782 41.5422 163.451 41.6134 163.147 41.7492C162.842 41.8915 162.57 42.079 162.343 42.3183C162.116 42.5576 161.928 42.8357 161.792 43.1526C161.649 43.4695 161.578 43.8123 161.578 44.1809Z" fill="white"/>
<path d="M169.194 40.986V45.0734C169.194 45.1833 169.207 45.3386 169.227 45.5326C169.246 45.7266 169.305 45.9206 169.402 46.1146C169.493 46.3022 169.642 46.4704 169.849 46.6126C170.057 46.7549 170.335 46.8196 170.705 46.8196C171.165 46.8196 171.528 46.7226 171.794 46.535C172.059 46.3475 172.26 46.1017 172.396 45.8107C172.533 45.5196 172.623 45.1963 172.656 44.8535C172.695 44.5043 172.714 44.1809 172.714 43.8769V40.999H173.492V47.3887H172.714V46.4315H172.688C172.546 46.6838 172.377 46.8907 172.183 47.033C171.995 47.1818 171.8 47.2917 171.606 47.3693C171.411 47.4469 171.223 47.4922 171.048 47.5116C170.873 47.531 170.731 47.5375 170.607 47.5375C170.549 47.5375 170.452 47.531 170.322 47.5245C170.193 47.5181 170.044 47.4857 169.875 47.4405C169.707 47.3952 169.544 47.324 169.369 47.2335C169.194 47.143 169.045 47.0136 168.896 46.8455C168.754 46.6773 168.637 46.4704 168.546 46.2181C168.456 45.9659 168.41 45.6555 168.41 45.2868V40.999H169.194V40.986Z" fill="white"/>
<path d="M178.203 41.6845C178.035 41.6263 177.853 41.594 177.665 41.594C177.393 41.594 177.134 41.6586 176.894 41.788C176.654 41.9173 176.434 42.0984 176.246 42.3312C176.058 42.5641 175.902 42.8292 175.792 43.1332C175.682 43.4372 175.624 43.767 175.624 44.1098V47.3693H174.846V40.9796H175.585V42.3312H175.624C175.792 41.8203 176.097 41.4323 176.531 41.1542C176.965 40.8761 177.464 40.7403 178.022 40.7403C178.093 40.7403 178.158 40.7403 178.216 40.7467C178.281 40.7532 178.346 40.7597 178.411 40.7661L178.203 41.6845Z" fill="white"/>
<path d="M182.437 42.1696C182.294 42.0338 182.145 41.9238 181.996 41.8397C181.847 41.7557 181.704 41.691 181.574 41.6457C181.445 41.6005 181.315 41.5746 181.199 41.5617C181.082 41.5487 180.978 41.5422 180.894 41.5422C180.667 41.5422 180.466 41.5746 180.311 41.6393C180.148 41.7039 180.019 41.7815 179.922 41.8786C179.824 41.9756 179.753 42.0855 179.708 42.2149C179.662 42.3442 179.636 42.4671 179.636 42.5964C179.636 42.8357 179.688 43.0233 179.792 43.1591C179.896 43.2949 180.025 43.4048 180.194 43.4889C180.362 43.573 180.544 43.6441 180.758 43.6959C180.965 43.7476 181.179 43.7994 181.386 43.864C181.542 43.9093 181.711 43.9675 181.899 44.0451C182.087 44.1227 182.262 44.2262 182.424 44.362C182.586 44.4978 182.722 44.666 182.825 44.8729C182.929 45.0799 182.987 45.3321 182.987 45.6361C182.987 45.9271 182.929 46.1858 182.819 46.4186C182.709 46.6515 182.553 46.852 182.352 47.0136C182.151 47.1753 181.912 47.3047 181.633 47.3952C181.354 47.4858 181.049 47.531 180.712 47.531C180.596 47.531 180.46 47.5181 180.304 47.4987C180.148 47.4793 179.986 47.4276 179.805 47.3564C179.623 47.2853 179.442 47.1883 179.248 47.0589C179.06 46.9296 178.865 46.7614 178.684 46.548L179.196 45.9983C179.26 46.0823 179.345 46.1729 179.442 46.2699C179.539 46.3669 179.649 46.4574 179.779 46.5351C179.909 46.6127 180.051 46.6838 180.22 46.7291C180.388 46.7808 180.563 46.8067 180.764 46.8067C181.147 46.8067 181.477 46.7097 181.762 46.5092C182.041 46.3087 182.184 46.0306 182.184 45.662C182.184 45.4356 182.132 45.2416 182.035 45.0928C181.937 44.9441 181.808 44.8212 181.646 44.7307C181.484 44.6401 181.302 44.5625 181.088 44.5043C180.881 44.4461 180.667 44.3814 180.447 44.3103C180.304 44.265 180.142 44.2133 179.954 44.1421C179.773 44.071 179.598 43.9675 179.435 43.8317C179.273 43.6959 179.137 43.5277 179.027 43.3143C178.917 43.1074 178.859 42.8487 178.859 42.5447C178.859 42.3442 178.897 42.1372 178.982 41.9368C179.06 41.7298 179.183 41.5487 179.351 41.3806C179.52 41.2124 179.727 41.0831 179.973 40.9796C180.22 40.8761 180.524 40.8244 180.874 40.8244C181.186 40.8244 181.516 40.8761 181.853 40.9796C182.19 41.0831 182.534 41.2836 182.871 41.5875L182.437 42.1696Z" fill="white"/>
</svg>
