<svg width="21" height="21" viewBox="0 0 21 21" fill="none" xmlns="http://www.w3.org/2000/svg">
<path fill-rule="evenodd" clip-rule="evenodd" d="M9.97444 4.25437C10.5604 4.9039 10.3746 5.63975 9.85651 6.33796C9.73368 6.5035 9.59209 6.6666 9.42108 6.84633C9.339 6.9326 9.27499 6.99748 9.14112 7.13148L8.37435 7.89868C8.2739 7.99912 8.95972 9.36959 10.2907 10.7019C11.621 12.0335 12.9914 12.7198 13.0923 12.6188L13.8585 11.8521C14.2805 11.4297 14.504 11.226 14.811 11.0245C15.4494 10.6057 16.1457 10.4919 16.7329 11.017C18.6503 12.3885 19.7354 13.2302 20.2669 13.7825C21.3037 14.8598 21.1678 16.518 20.2728 17.464C19.9624 17.7921 19.5689 18.1858 19.1041 18.6339C16.2926 21.447 10.3589 19.7351 5.81139 15.1831C1.26285 10.6301 -0.448184 4.69583 2.35747 1.88867C2.86116 1.37706 3.02723 1.21107 3.51779 0.727708C4.43112 -0.172224 6.16589 -0.313135 7.22044 0.728598C7.77515 1.27655 8.65949 2.41439 9.97444 4.25437ZM15.2721 13.2662L14.5057 14.033C13.203 15.3364 10.9845 14.2254 8.87697 12.1158C6.76802 10.0048 5.65821 7.78706 6.96136 6.48402L7.72738 5.71758C7.84996 5.59488 7.90603 5.53804 7.97333 5.4673C8.06503 5.37093 8.14038 5.28629 8.20071 5.21139C7.03534 3.58805 6.24314 2.5737 5.81608 2.15182C5.59552 1.93395 5.10166 1.97407 4.92035 2.15271C4.4368 2.62918 4.27786 2.78804 3.7762 3.29755C1.97188 5.10285 3.35315 9.89338 7.22513 13.7692C11.0959 17.6437 15.8857 19.0257 17.7037 17.2069C18.1613 16.7655 18.5342 16.3924 18.8212 16.0891C19.0286 15.8699 19.0656 15.4176 18.8271 15.1698C18.4297 14.7569 17.457 13.9985 15.7773 12.7923C15.6549 12.8908 15.5044 13.0337 15.2721 13.2662ZM13.707 8.7071L18.9999 3.4142V6.99999H20.9999V-1.10856e-05H13.9999V1.99999H17.5857L12.2928 7.29288L13.707 8.7071Z" fill="white"/>
</svg>
