<svg width="21" height="21" viewBox="0 0 21 21" fill="none" xmlns="http://www.w3.org/2000/svg">
<path fill-rule="evenodd" clip-rule="evenodd" d="M9.97542 4.25443C10.5614 4.90396 10.3756 5.63981 9.85749 6.33802C9.73465 6.50356 9.59306 6.66666 9.42206 6.84639C9.33997 6.93266 9.27597 6.99754 9.1421 7.13155L8.37532 7.89874C8.27487 7.99918 8.96069 9.36965 10.2917 10.702C11.622 12.0335 12.9924 12.7198 13.0933 12.6188L13.8595 11.8522C14.2815 11.4298 14.5049 11.226 14.812 11.0246C15.4504 10.6058 16.1467 10.492 16.7339 11.0171C18.6513 12.3886 19.7363 13.2302 20.2679 13.7825C21.3047 14.8598 21.1688 16.5181 20.2738 17.4641C19.9634 17.7921 19.5699 18.1859 19.1051 18.634C16.2935 21.4471 10.3599 19.7351 5.81237 15.1831C1.26382 10.6301 -0.447208 4.69589 2.35844 1.88873C2.86214 1.37712 3.02821 1.21113 3.51877 0.727769C4.43209 -0.172163 6.16686 -0.313074 7.22142 0.728659C7.77612 1.27662 8.66046 2.41445 9.97542 4.25443ZM15.2731 13.2662L14.5067 14.0331C13.204 15.3365 10.9855 14.2254 8.87795 12.1159C6.769 10.0048 5.65919 7.78712 6.96234 6.48408L7.72836 5.71764C7.85094 5.59494 7.90701 5.5381 7.97431 5.46737C8.06601 5.37099 8.14136 5.28635 8.20168 5.21145C7.03632 3.58811 6.24412 2.57376 5.81705 2.15189C5.5965 1.93401 5.10264 1.97413 4.92133 2.15278C4.43778 2.62924 4.27884 2.7881 3.77717 3.29761C1.97286 5.10291 3.35412 9.89344 7.22611 13.7692C11.0969 17.6438 15.8867 19.0257 17.7047 17.2069C18.1623 16.7656 18.5352 16.3925 18.8221 16.0892C19.0295 15.87 19.0666 15.4177 18.828 15.1698C18.4307 14.757 17.4579 13.9985 15.7783 12.7923C15.6558 12.8909 15.5053 13.0338 15.2731 13.2662ZM13.708 8.70716L19.0009 3.41426V7.00005H21.0009V4.99474e-05H14.0009V2.00005H17.5867L12.2938 7.29294L13.708 8.70716Z" fill="#2B3637"/>
</svg>
