<svg width="42" height="53" viewBox="0 0 42 53" fill="none" xmlns="http://www.w3.org/2000/svg">
<path d="M42 0L42 41.6429L21 53L1.99443e-06 41.6429L3.8147e-06 -1.83588e-06L42 0Z" fill="#0F93A1"/>
<path d="M20.5 16C19.4062 17.0773 15 21.6193 15 24.8577C15 27.693 17.4674 30 20.5 30C23.5326 30 26 27.693 26 24.8577C26 21.6174 21.5938 17.0767 20.5 16Z" fill="white"/>
<path d="M20.5 16C19.4062 17.0773 15 21.6193 15 24.8577C15 27.693 17.4674 30 20.5 30C23.5326 30 26 27.693 26 24.8577C26 21.6174 21.5938 17.0767 20.5 16Z" fill="white"/>
</svg>
